<svg version="1.1" id="Layer_1" xmlns="http://www.w3.org/2000/svg" xmlns:xlink="http://www.w3.org/1999/xlink" x="0px" y="0px"
	 width="100%" viewBox="0 0 512 800" enable-background="new 0 0 512 800" xml:space="preserve">
<path fill="#000000" opacity="1.000000" stroke="none" 
	d="
M401.778687,750.974609 
	C380.879028,762.846008 359.294128,772.153015 336.378296,778.170471 
	C320.186676,782.422241 303.755432,785.138489 287.016815,786.538452 
	C272.858154,787.722656 258.713531,787.688660 244.621658,787.188354 
	C205.514435,785.800110 168.589233,776.212158 135.309692,754.963013 
	C122.704468,746.914551 111.236343,737.366028 100.560425,726.768066 
	C88.659767,714.954346 78.939980,701.549866 69.815987,687.649231 
	C60.597591,673.604797 53.011311,658.678345 46.125130,643.342041 
	C40.067905,629.851929 35.240673,615.920471 31.192873,601.795654 
	C26.091599,583.994690 22.102783,565.858582 19.680656,547.453064 
	C16.759546,525.255798 14.652184,503.022308 14.376861,480.568542 
	C14.265337,471.473450 13.242355,462.270508 13.787667,453.190582 
	C15.040018,432.337891 15.168286,411.449829 17.283920,390.602295 
	C19.209270,371.629791 21.731390,352.770538 24.826338,334.001038 
	C27.221272,319.476807 30.801580,305.135468 34.173138,290.787628 
	C39.834953,266.693390 47.415760,243.136337 55.940922,219.947098 
	C61.942169,203.623123 68.937607,187.648911 76.682076,171.995377 
	C83.469933,158.275421 91.271912,145.210052 99.347763,132.273468 
	C106.989769,120.031837 115.941017,108.766548 125.137146,97.645622 
	C135.432663,85.195190 146.710617,73.791313 158.851654,63.188423 
	C183.932114,41.285416 211.414505,23.641512 244.695282,17.381493 
	C258.989685,14.692762 273.533478,14.008755 288.254547,15.344511 
	C298.735352,16.295513 308.937195,17.925726 318.975677,20.786417 
	C337.349213,26.022383 353.135315,35.778976 367.227661,48.563374 
	C382.606903,62.515278 393.597443,79.599983 402.823578,97.917084 
	C415.681885,123.445267 423.353455,150.697311 428.025299,178.745926 
	C430.552277,193.917313 431.996918,209.267731 432.530640,224.715759 
	C432.817108,233.005676 433.330353,241.297974 433.333405,249.603851 
	C433.343079,276.034546 430.473785,302.146027 425.675385,328.147430 
	C421.273132,352.002167 415.837494,375.529999 407.353638,398.262909 
	C403.336121,409.028137 398.045380,419.251587 390.184601,427.783539 
	C384.799042,433.628937 378.075653,436.728729 369.769623,436.429871 
	C361.468689,436.131165 353.021210,437.128510 345.756409,431.770752 
	C337.481720,425.668243 330.560394,418.809937 331.580536,407.260010 
	C331.789215,404.897705 332.501587,403.166443 334.457214,401.814331 
	C338.684662,398.891449 342.888550,395.930084 347.019226,392.872528 
	C356.467407,385.878815 361.623901,375.903198 365.603424,365.267242 
	C371.265015,350.135681 373.907288,334.347473 375.788818,318.334686 
	C378.159760,298.156525 378.892578,277.954041 378.697540,257.667175 
	C378.531189,240.367294 376.173340,223.338776 373.189148,206.356659 
	C371.323975,195.742432 368.927277,185.192917 365.443909,175.061829 
	C362.528198,166.581833 359.606659,158.043533 356.372681,149.640320 
	C351.409241,136.743256 345.550049,124.446922 338.387421,112.728668 
	C335.909729,108.675026 331.448914,105.669838 329.190613,101.949478 
	C324.611725,94.406143 317.933105,89.682884 311.483795,84.430283 
	C303.835175,78.200943 294.829590,75.085693 285.283234,73.361938 
	C271.962067,70.956573 259.860779,74.849335 247.913223,80.325020 
	C237.863632,84.930840 228.823853,90.962875 220.203400,97.750237 
	C218.508102,99.085045 218.502762,99.078262 218.391846,101.769775 
	C213.249588,101.843658 210.423157,105.929596 207.236130,108.952469 
	C193.230820,122.236397 180.922073,137.006851 169.552277,152.621979 
	C153.271423,174.981949 139.385712,198.723495 128.500488,224.101028 
	C116.991508,250.932755 107.834999,278.569336 101.039207,307.045502 
	C96.616707,325.576935 92.667053,344.194794 89.794960,362.972412 
	C87.773994,376.185486 86.645462,389.604187 85.099281,402.909973 
	C82.834473,422.400024 82.595749,441.958099 81.607002,461.474548 
	C80.902695,475.376617 80.516563,489.390900 82.151085,503.355194 
	C83.036652,510.920868 82.536995,518.591553 83.160957,526.239075 
	C84.307335,540.289551 86.118492,554.223877 88.648376,568.057007 
	C93.143402,592.635193 100.392708,616.385437 111.286957,638.929749 
	C123.215378,663.614014 139.202362,685.045715 160.917175,702.173157 
	C183.339996,719.859070 209.161758,729.213135 236.874496,733.354370 
	C252.190079,735.643066 267.754333,735.419189 283.384247,733.966492 
	C304.385071,732.014404 324.022888,726.007507 342.725037,716.938232 
	C357.607147,709.721436 371.426239,700.636841 384.128510,689.833191 
	C403.996613,672.934998 419.860474,652.913879 431.338226,629.625183 
	C436.231812,619.695984 438.806641,608.676453 443.491364,598.563721 
	C446.415924,592.250732 448.934479,585.746033 452.863342,579.914307 
	C457.904419,572.431580 464.796875,568.582397 473.815674,568.678467 
	C479.271667,568.736572 484.695374,568.310425 490.062317,570.387939 
	C496.021545,572.694763 499.667053,576.625732 501.329742,582.669434 
	C505.117432,596.437256 502.729889,609.982788 499.672089,623.429810 
	C495.488190,641.828735 488.786591,659.363525 479.459015,675.736511 
	C468.773224,694.493652 454.899384,710.663879 438.540344,724.862000 
	C427.186676,734.716003 414.819244,742.953308 401.778687,750.974609 
M372.377136,178.328583 
	C379.520844,204.180161 383.487061,230.470947 383.351166,257.335876 
	C383.284576,270.499451 384.095306,283.729675 383.033478,296.809967 
	C381.764404,312.442322 380.629547,328.124939 377.475830,343.605713 
	C372.638947,367.348816 365.711090,389.487000 343.412140,403.331909 
	C334.827789,408.661713 334.770081,409.536072 340.549652,417.863007 
	C351.952911,434.292267 374.798126,438.277863 388.552399,419.839783 
	C402.250549,401.476898 408.274536,379.768829 413.596832,357.947449 
	C418.503479,337.830231 422.148254,317.474762 425.221313,296.965027 
	C427.596710,281.111298 428.127930,265.165375 428.143738,249.365341 
	C428.155396,237.713974 428.015045,225.861145 426.942596,214.082825 
	C425.498047,198.217072 423.518860,182.445084 420.208038,166.945724 
	C415.566864,145.218323 408.830109,124.111008 398.897278,104.041122 
	C388.396088,82.822830 375.660614,63.491013 357.246307,48.247681 
	C346.657043,39.481911 335.141022,32.108547 322.159058,27.789965 
	C304.358490,21.868431 286.159302,18.934851 267.041138,20.019705 
	C248.911591,21.048460 231.986069,25.596752 215.727173,32.734692 
	C193.791321,42.364922 174.776550,56.729370 157.304428,72.895653 
	C132.911743,95.465286 112.671722,121.429695 95.704315,150.077469 
	C79.801285,176.928146 67.452011,205.292984 57.097916,234.629547 
	C49.977707,254.803421 43.659508,275.223206 38.628918,296.010437 
	C35.247684,309.982300 31.862757,324.000244 29.565506,338.173584 
	C27.477642,351.055054 25.571009,363.992065 24.050791,376.985596 
	C21.854254,395.759766 19.846437,414.575958 19.550810,433.423889 
	C19.177887,457.199829 18.290993,481.026917 20.339069,504.794891 
	C21.078588,513.377075 21.328373,522.030273 22.597603,530.532227 
	C25.745256,551.617004 29.021847,572.661865 34.887020,593.266785 
	C39.710735,610.212952 45.090076,626.944885 52.516666,642.865234 
	C64.195335,667.900635 78.000793,691.618469 96.400558,712.587952 
	C111.699265,730.023193 129.084671,744.644470 149.179123,756.024902 
	C179.844955,773.392395 213.301514,780.840698 248.150787,782.557800 
	C262.743958,783.276794 277.337006,782.339600 291.923889,780.848999 
	C311.803162,778.817444 331.120972,774.478394 349.926666,768.001587 
	C375.180786,759.303955 398.625061,746.947388 420.350525,731.380798 
	C433.118317,722.232544 444.529175,711.469727 454.816254,699.740662 
	C468.019348,684.686890 478.270599,667.505737 485.491943,648.817871 
	C492.313812,631.163757 498.403809,613.184937 497.647552,593.781921 
	C497.449432,588.699280 496.489594,583.872498 492.890625,579.972351 
	C483.907471,570.237427 466.193878,571.848938 458.410004,582.950500 
	C454.752167,588.167358 452.508636,594.068359 449.638458,599.665955 
	C442.897461,612.812805 440.040314,627.553589 432.718079,640.490540 
	C424.584259,654.861389 415.204315,668.283691 403.789948,680.234070 
	C390.750031,693.886292 375.970703,705.341797 359.746033,714.978882 
	C332.316650,731.271057 302.399017,738.890442 270.779449,740.299500 
	C259.504456,740.801941 248.275421,739.872681 237.010284,738.535828 
	C219.047638,736.404297 201.755524,732.058472 185.438705,724.494080 
	C155.639542,710.679260 132.867706,688.886536 116.054428,660.841248 
	C102.397003,638.060059 93.343155,613.473022 87.227348,587.630554 
	C80.904251,560.912170 77.668358,533.808289 76.855812,506.499756 
	C76.025261,478.586456 76.610481,450.646271 78.465874,422.727234 
	C79.598701,405.681091 81.591225,388.770325 83.492302,371.818176 
	C86.341576,346.410675 91.387672,321.440460 97.698853,296.724274 
	C103.857574,272.605103 111.869545,249.107330 121.299599,226.017365 
	C131.959534,199.915955 145.524200,175.487717 161.703491,152.567032 
	C175.371231,133.204407 190.402313,114.923973 208.537292,99.325027 
	C224.945877,85.211075 242.247543,73.026512 263.967102,68.843742 
	C282.174042,65.337425 299.397614,68.276680 314.805634,78.724350 
	C331.904205,90.318336 343.418457,106.721436 352.367920,125.024796 
	C360.618011,141.897858 367.201355,159.423676 372.377136,178.328583 
z"/>
</svg>